<svg xmlns="http://www.w3.org/2000/svg" version="1.1" xmlns:xlink="http://www.w3.org/1999/xlink" xmlns:svgjs="http://svgjs.com/svgjs" width="1980" height="1080" preserveAspectRatio="none" viewBox="0 0 1980 1080"><g mask="url(&quot;#SvgjsMask1592&quot;)" fill="none"><rect width="1980" height="1080" x="0" y="0" fill="#0e2a47"></rect><g mask="url(&quot;#SvgjsMask1593&quot;)"><path d="M-25 525L25 525L75 525L125 525" stroke="rgba(173, 239, 209, 1)" stroke-width="8.33"></path><path d="M112.5 525 a12.5 12.5 0 1 0 25 0 a12.5 12.5 0 1 0 -25 0z" fill="rgba(173, 239, 209, 1)"></path><path d="M275 575L325 575L375 575L425 575L475 525M125 575L175 625M225 575L275 625M-25 575L25 575L75 575L125 575L175 575L225 575L275 575L325 625L375 625L425 625L475 625" stroke="rgba(173, 239, 209, 1)" stroke-width="8.33"></path><path d="M462.5 625 a12.5 12.5 0 1 0 25 0 a12.5 12.5 0 1 0 -25 0zM462.5 525 a12.5 12.5 0 1 0 25 0 a12.5 12.5 0 1 0 -25 0zM162.5 625 a12.5 12.5 0 1 0 25 0 a12.5 12.5 0 1 0 -25 0zM262.5 625 a12.5 12.5 0 1 0 25 0 a12.5 12.5 0 1 0 -25 0z" fill="rgba(173, 239, 209, 1)"></path><path d="M175 475L225 525L275 525L325 525M-25 475L25 475L75 475L125 475L175 475L225 475" stroke="rgba(173, 239, 209, 1)" stroke-width="8.33"></path><path d="M212.5 475 a12.5 12.5 0 1 0 25 0 a12.5 12.5 0 1 0 -25 0zM312.5 525 a12.5 12.5 0 1 0 25 0 a12.5 12.5 0 1 0 -25 0z" fill="rgba(173, 239, 209, 1)"></path><path d="M275 675L325 725L375 725M225 675L275 725M175 675L225 725M-25 625L25 625L75 625L125 675L175 675L225 675L275 675L325 675L375 675L425 675" stroke="rgba(173, 239, 209, 1)" stroke-width="8.33"></path><path d="M412.5 675 a12.5 12.5 0 1 0 25 0 a12.5 12.5 0 1 0 -25 0zM362.5 725 a12.5 12.5 0 1 0 25 0 a12.5 12.5 0 1 0 -25 0zM262.5 725 a12.5 12.5 0 1 0 25 0 a12.5 12.5 0 1 0 -25 0zM212.5 725 a12.5 12.5 0 1 0 25 0 a12.5 12.5 0 1 0 -25 0z" fill="rgba(173, 239, 209, 1)"></path><path d="M-25 425L25 425L75 425L125 425L175 425L225 425L275 425" stroke="rgba(173, 239, 209, 1)" stroke-width="8.33"></path><path d="M262.5 425 a12.5 12.5 0 1 0 25 0 a12.5 12.5 0 1 0 -25 0z" fill="rgba(173, 239, 209, 1)"></path><path d="M-25 675L25 675L75 675L125 725" stroke="rgba(173, 239, 209, 1)" stroke-width="8.33"></path><path d="M112.5 725 a12.5 12.5 0 1 0 25 0 a12.5 12.5 0 1 0 -25 0z" fill="rgba(173, 239, 209, 1)"></path><path d="M125 375L175 325M225 375L275 325M-25 375L25 375L75 375L125 375L175 375L225 375L275 375L325 375" stroke="rgba(173, 239, 209, 1)" stroke-width="8.33"></path><path d="M312.5 375 a12.5 12.5 0 1 0 25 0 a12.5 12.5 0 1 0 -25 0zM162.5 325 a12.5 12.5 0 1 0 25 0 a12.5 12.5 0 1 0 -25 0zM262.5 325 a12.5 12.5 0 1 0 25 0 a12.5 12.5 0 1 0 -25 0z" fill="rgba(173, 239, 209, 1)"></path><path d="M-25 725L25 725L75 725" stroke="rgba(173, 239, 209, 1)" stroke-width="8.33"></path><path d="M62.5 725 a12.5 12.5 0 1 0 25 0 a12.5 12.5 0 1 0 -25 0z" fill="rgba(173, 239, 209, 1)"></path><path d="M475 775L525 775M175 775L225 825L275 825M125 775L175 825L225 875L275 875L325 875M-25 775L25 775L75 775L125 775L175 775L225 775L275 775L325 775L375 775L425 775L475 775L525 825" stroke="rgba(173, 239, 209, 1)" stroke-width="8.33"></path><path d="M512.5 825 a12.5 12.5 0 1 0 25 0 a12.5 12.5 0 1 0 -25 0zM512.5 775 a12.5 12.5 0 1 0 25 0 a12.5 12.5 0 1 0 -25 0zM262.5 825 a12.5 12.5 0 1 0 25 0 a12.5 12.5 0 1 0 -25 0zM312.5 875 a12.5 12.5 0 1 0 25 0 a12.5 12.5 0 1 0 -25 0z" fill="rgba(173, 239, 209, 1)"></path><path d="M25 275L75 225M-25 275L25 275L75 325" stroke="rgba(173, 239, 209, 1)" stroke-width="8.33"></path><path d="M62.5 325 a12.5 12.5 0 1 0 25 0 a12.5 12.5 0 1 0 -25 0zM62.5 225 a12.5 12.5 0 1 0 25 0 a12.5 12.5 0 1 0 -25 0z" fill="rgba(173, 239, 209, 1)"></path></g></g><defs><mask id="SvgjsMask1592"><rect width="1980" height="1080" fill="#ffffff"></rect></mask><mask id="SvgjsMask1593"><rect width="1980" height="1080" fill="white"></rect><path d="M118.75 525 a6.25 6.25 0 1 0 12.5 0 a6.25 6.25 0 1 0 -12.5 0z" fill="black"></path><path d="M468.75 625 a6.25 6.25 0 1 0 12.5 0 a6.25 6.25 0 1 0 -12.5 0zM468.75 525 a6.25 6.25 0 1 0 12.5 0 a6.25 6.25 0 1 0 -12.5 0zM168.75 625 a6.25 6.25 0 1 0 12.5 0 a6.25 6.25 0 1 0 -12.5 0zM268.75 625 a6.25 6.25 0 1 0 12.5 0 a6.25 6.25 0 1 0 -12.5 0z" fill="black"></path><path d="M218.75 475 a6.25 6.25 0 1 0 12.5 0 a6.25 6.25 0 1 0 -12.5 0zM318.75 525 a6.25 6.25 0 1 0 12.5 0 a6.25 6.25 0 1 0 -12.5 0z" fill="black"></path><path d="M418.75 675 a6.25 6.25 0 1 0 12.5 0 a6.25 6.25 0 1 0 -12.5 0zM368.75 725 a6.25 6.25 0 1 0 12.5 0 a6.25 6.25 0 1 0 -12.5 0zM268.75 725 a6.25 6.25 0 1 0 12.5 0 a6.25 6.25 0 1 0 -12.5 0zM218.75 725 a6.25 6.25 0 1 0 12.5 0 a6.25 6.25 0 1 0 -12.5 0z" fill="black"></path><path d="M268.75 425 a6.25 6.25 0 1 0 12.5 0 a6.25 6.25 0 1 0 -12.5 0z" fill="black"></path><path d="M118.75 725 a6.25 6.25 0 1 0 12.5 0 a6.25 6.25 0 1 0 -12.5 0z" fill="black"></path><path d="M318.75 375 a6.25 6.25 0 1 0 12.5 0 a6.25 6.25 0 1 0 -12.5 0zM168.75 325 a6.25 6.25 0 1 0 12.5 0 a6.25 6.25 0 1 0 -12.5 0zM268.75 325 a6.25 6.25 0 1 0 12.5 0 a6.25 6.25 0 1 0 -12.5 0z" fill="black"></path><path d="M68.75 725 a6.25 6.25 0 1 0 12.5 0 a6.25 6.25 0 1 0 -12.5 0z" fill="black"></path><path d="M518.75 825 a6.25 6.25 0 1 0 12.5 0 a6.25 6.25 0 1 0 -12.5 0zM518.75 775 a6.25 6.25 0 1 0 12.5 0 a6.25 6.25 0 1 0 -12.5 0zM268.75 825 a6.25 6.25 0 1 0 12.5 0 a6.25 6.25 0 1 0 -12.5 0zM318.75 875 a6.25 6.25 0 1 0 12.5 0 a6.25 6.25 0 1 0 -12.5 0z" fill="black"></path><path d="M68.75 325 a6.25 6.25 0 1 0 12.5 0 a6.25 6.25 0 1 0 -12.5 0zM68.75 225 a6.25 6.25 0 1 0 12.5 0 a6.25 6.25 0 1 0 -12.5 0z" fill="black"></path></mask></defs></svg>