<svg xmlns="http://www.w3.org/2000/svg" version="1.1" xmlns:xlink="http://www.w3.org/1999/xlink" xmlns:svgjs="http://svgjs.com/svgjs" width="1980" height="1080" preserveAspectRatio="none" viewBox="0 0 1980 1080"><g mask="url(&quot;#SvgjsMask1724&quot;)" fill="none"><rect width="1980" height="1080" x="0" y="0" fill="#0e2a47"></rect><g mask="url(&quot;#SvgjsMask1725&quot;)"><path d="M-25 575L25 575" stroke="rgba(173, 239, 209, 1)" stroke-width="8.33"></path><path d="M12.5 575 a12.5 12.5 0 1 0 25 0 a12.5 12.5 0 1 0 -25 0z" fill="rgba(173, 239, 209, 1)"></path><path d="M-25 475L25 475" stroke="rgba(173, 239, 209, 1)" stroke-width="8.33"></path><path d="M12.5 475 a12.5 12.5 0 1 0 25 0 a12.5 12.5 0 1 0 -25 0z" fill="rgba(173, 239, 209, 1)"></path><path d="M-25 675L25 675L75 675" stroke="rgba(173, 239, 209, 1)" stroke-width="8.33"></path><path d="M62.5 675 a12.5 12.5 0 1 0 25 0 a12.5 12.5 0 1 0 -25 0z" fill="rgba(173, 239, 209, 1)"></path><path d="M-25 375L25 375" stroke="rgba(173, 239, 209, 1)" stroke-width="8.33"></path><path d="M12.5 375 a12.5 12.5 0 1 0 25 0 a12.5 12.5 0 1 0 -25 0z" fill="rgba(173, 239, 209, 1)"></path><path d="M125 725L175 675L225 675L275 675M175 725L225 775L275 775L325 775M-25 725L25 725L75 725L125 725L175 725L225 725" stroke="rgba(173, 239, 209, 1)" stroke-width="8.33"></path><path d="M212.5 725 a12.5 12.5 0 1 0 25 0 a12.5 12.5 0 1 0 -25 0zM262.5 675 a12.5 12.5 0 1 0 25 0 a12.5 12.5 0 1 0 -25 0zM312.5 775 a12.5 12.5 0 1 0 25 0 a12.5 12.5 0 1 0 -25 0z" fill="rgba(173, 239, 209, 1)"></path><path d="M75 325L125 375L175 375L225 375M-25 325L25 325L75 325L125 325L175 325L225 325" stroke="rgba(173, 239, 209, 1)" stroke-width="8.33"></path><path d="M212.5 325 a12.5 12.5 0 1 0 25 0 a12.5 12.5 0 1 0 -25 0zM212.5 375 a12.5 12.5 0 1 0 25 0 a12.5 12.5 0 1 0 -25 0z" fill="rgba(173, 239, 209, 1)"></path><path d="M25 775L75 825M-25 775L25 775L75 775" stroke="rgba(173, 239, 209, 1)" stroke-width="8.33"></path><path d="M62.5 775 a12.5 12.5 0 1 0 25 0 a12.5 12.5 0 1 0 -25 0zM62.5 825 a12.5 12.5 0 1 0 25 0 a12.5 12.5 0 1 0 -25 0z" fill="rgba(173, 239, 209, 1)"></path><path d="M75 275L125 225M225 275L275 225L325 225M275 275L325 325L375 325M-25 275L25 275L75 275L125 275L175 275L225 275L275 275L325 275" stroke="rgba(173, 239, 209, 1)" stroke-width="8.33"></path><path d="M312.5 275 a12.5 12.5 0 1 0 25 0 a12.5 12.5 0 1 0 -25 0zM112.5 225 a12.5 12.5 0 1 0 25 0 a12.5 12.5 0 1 0 -25 0zM312.5 225 a12.5 12.5 0 1 0 25 0 a12.5 12.5 0 1 0 -25 0zM362.5 325 a12.5 12.5 0 1 0 25 0 a12.5 12.5 0 1 0 -25 0z" fill="rgba(173, 239, 209, 1)"></path></g></g><defs><mask id="SvgjsMask1724"><rect width="1980" height="1080" fill="#ffffff"></rect></mask><mask id="SvgjsMask1725"><rect width="1980" height="1080" fill="white"></rect><path d="M18.75 575 a6.25 6.25 0 1 0 12.5 0 a6.25 6.25 0 1 0 -12.5 0z" fill="black"></path><path d="M18.75 475 a6.25 6.25 0 1 0 12.5 0 a6.25 6.25 0 1 0 -12.5 0z" fill="black"></path><path d="M68.75 675 a6.25 6.25 0 1 0 12.5 0 a6.25 6.25 0 1 0 -12.5 0z" fill="black"></path><path d="M18.75 375 a6.25 6.25 0 1 0 12.5 0 a6.25 6.25 0 1 0 -12.5 0z" fill="black"></path><path d="M218.75 725 a6.25 6.25 0 1 0 12.5 0 a6.25 6.25 0 1 0 -12.5 0zM268.75 675 a6.25 6.25 0 1 0 12.5 0 a6.25 6.25 0 1 0 -12.5 0zM318.75 775 a6.25 6.25 0 1 0 12.5 0 a6.25 6.25 0 1 0 -12.5 0z" fill="black"></path><path d="M218.75 325 a6.25 6.25 0 1 0 12.5 0 a6.25 6.25 0 1 0 -12.5 0zM218.75 375 a6.25 6.25 0 1 0 12.5 0 a6.25 6.25 0 1 0 -12.5 0z" fill="black"></path><path d="M68.75 775 a6.25 6.25 0 1 0 12.5 0 a6.25 6.25 0 1 0 -12.5 0zM68.75 825 a6.25 6.25 0 1 0 12.5 0 a6.25 6.25 0 1 0 -12.5 0z" fill="black"></path><path d="M318.75 275 a6.25 6.25 0 1 0 12.5 0 a6.25 6.25 0 1 0 -12.5 0zM118.75 225 a6.25 6.25 0 1 0 12.5 0 a6.25 6.25 0 1 0 -12.5 0zM318.75 225 a6.25 6.25 0 1 0 12.5 0 a6.25 6.25 0 1 0 -12.5 0zM368.75 325 a6.25 6.25 0 1 0 12.5 0 a6.25 6.25 0 1 0 -12.5 0z" fill="black"></path></mask></defs></svg>