<svg xmlns="http://www.w3.org/2000/svg" version="1.1" xmlns:xlink="http://www.w3.org/1999/xlink" xmlns:svgjs="http://svgjs.com/svgjs" width="1980" height="1078" preserveAspectRatio="none" viewBox="0 0 1980 1078"><g mask="url(&quot;#SvgjsMask1131&quot;)" fill="none"><rect width="1980" height="1078" x="0" y="0" fill="rgba(36, 37, 38, 1)"></rect><path d="M1701.25 1038.7 a194.75 194.75 0 1 0 389.5 0 a194.75 194.75 0 1 0 -389.5 0z" fill="rgba(71, 24, 219, 1)" class="triangle-float1"></path><path d="M806.99 942.32 a315.23 315.23 0 1 0 630.46 0 a315.23 315.23 0 1 0 -630.46 0z" fill="rgba(71, 24, 219, 1)" class="triangle-float3"></path><path d="M924.62 328.9 a197.84 197.84 0 1 0 395.68 0 a197.84 197.84 0 1 0 -395.68 0z" fill="rgba(71, 24, 219, 1)" class="triangle-float2"></path><path d="M1354.17 136 a211.49 211.49 0 1 0 422.98 0 a211.49 211.49 0 1 0 -422.98 0z" fill="rgba(71, 24, 219, 1)" class="triangle-float2"></path></g><defs><mask id="SvgjsMask1131"><rect width="1980" height="1078" fill="#ffffff"></rect></mask></defs></svg>